# xmcd
#
# Track frame offsets:
#	150
#	14385
#	25745
#	36917
#	53885
#	68937
#	83065
#	100647
#	114102
#	127800
#	140622
#	155110
#
# Disc length: 2247 seconds
#
# Revision: 0
# Processed by: cddbd v1.5.2PL0 Copyright (c) Steve Scherf et al.
# Submitted via: dBpowerAMP V4.0
#
DISCID=9408c50c
DTITLE=Min and Lance - Treffers deur die Jare
DYEAR=2003
DGENRE=Country
TTITLE0=Swerwerslied
TTITLE1=Dankie
TTITLE2=Kinders van die wind
TTITLE3=Sproetjies
TTITLE4=Die lewe sonder jou
TTITLE5=Ek verlang na jou
TTITLE6=Sien jou môre
TTITLE7=Vicki
TTITLE8=Windpompliedjie
TTITLE9=Daar's niks soos ware liefde
TTITLE10=Gee haar 'n roos
TTITLE11=Ek verlang nog altyd
EXTD=
EXTT0=
EXTT1=
EXTT2=
EXTT3=
EXTT4=
EXTT5=
EXTT6=
EXTT7=
EXTT8=
EXTT9=
EXTT10=
EXTT11=
PLAYORDER=
